<svg width="35" height="35" viewBox="0 0 35 35" fill="none" xmlns="http://www.w3.org/2000/svg">
<path d="M24.6091 16.2424C25.8577 15.1968 26.6517 13.6263 26.6517 11.8703C26.6517 10.1144 25.8577 8.54392 24.6091 7.49832C24.7522 7.42902 24.8899 7.35382 25.0211 7.27232C25.8493 6.75736 26.8268 6.45996 27.8738 6.45996C30.8619 6.45996 33.2842 8.88232 33.2842 11.8703C33.2842 14.8584 30.8619 17.2807 27.8738 17.2807C26.8268 17.2807 25.8493 16.9833 25.0211 16.4684C24.8899 16.3869 24.7522 16.3117 24.6091 16.2424Z" fill="white"/>
<path d="M23.1065 12.722C23.665 11.1922 23.5674 9.43513 22.6894 7.91443C21.8114 6.39373 20.3385 5.43064 18.7344 5.14943C18.8237 5.0179 18.9053 4.88391 18.9781 4.74773C19.4379 3.88768 20.1358 3.14135 21.0425 2.61785C23.6303 1.12381 26.9393 2.01044 28.4333 4.59819C29.9273 7.18595 29.0407 10.4949 26.4529 11.9889C25.5462 12.5124 24.5509 12.7436 23.5762 12.7118C23.4219 12.7067 23.265 12.7105 23.1065 12.722Z" fill="white"/>
<path d="M20.0447 10.4246C19.7635 8.82053 18.8004 7.34763 17.2797 6.46965C15.759 5.59167 14.0019 5.49407 12.4721 6.05258C12.4837 5.89404 12.4874 5.73717 12.4823 5.58285C12.4505 4.60812 12.6817 3.61284 13.2052 2.7061C14.6993 0.118349 18.0082 -0.768281 20.596 0.725759C23.1837 2.2198 24.0704 5.52875 22.5763 8.11653C22.0528 9.02323 21.3065 9.72113 20.4464 10.1809C20.3103 10.2537 20.1763 10.3353 20.0447 10.4246Z" fill="white"/>
<path d="M16.2442 9.96602C15.1986 8.71742 13.6281 7.92342 11.8721 7.92342C10.1161 7.92342 8.54561 8.71742 7.50002 9.96602C7.43076 9.82292 7.35554 9.68522 7.27401 9.55402C6.75907 8.72582 6.46167 7.74832 6.46167 6.7013C6.46167 3.71321 8.88399 1.29089 11.8721 1.29089C14.8602 1.29089 17.2825 3.71321 17.2825 6.7013C17.2825 7.74832 16.9851 8.72582 16.4702 9.55402C16.3886 9.68522 16.3134 9.82292 16.2442 9.96602Z" fill="white"/>
<path d="M12.7231 11.4688C11.1933 10.9103 9.43619 11.0079 7.91548 11.8858C6.39477 12.7638 5.43168 14.2367 5.15048 15.8408C5.01895 15.7515 4.88495 15.6699 4.74877 15.5971C3.88872 15.1373 3.14239 14.4394 2.61889 13.5327C1.12484 10.9449 2.01147 7.63596 4.59923 6.1419C7.18699 4.64785 10.4959 5.53448 11.99 8.12226C12.5135 9.02896 12.7447 10.0243 12.7128 10.999C12.7078 11.1533 12.7115 11.3102 12.7231 11.4688Z" fill="white"/>
<path d="M10.4247 14.5308C8.82056 14.812 7.34767 15.7751 6.46969 17.2958C5.59171 18.8165 5.49411 20.5736 6.05263 22.1034C5.89407 22.0918 5.73718 22.0881 5.58284 22.0931C4.60812 22.125 3.61284 21.8938 2.70611 21.3703C0.118349 19.8762 -0.768282 16.5673 0.72576 13.9795C2.2198 11.3918 5.52875 10.5051 8.11651 11.9992C9.02324 12.5227 9.72111 13.269 10.1809 14.129C10.2537 14.2652 10.3354 14.3992 10.4247 14.5308Z" fill="white"/>
<path d="M9.96509 18.3316C8.71649 19.3772 7.92246 20.9477 7.92246 22.7036C7.92246 24.4596 8.71649 26.0301 9.96509 27.0757C9.822 27.1449 9.68428 27.2202 9.55314 27.3017C8.72493 27.8166 7.74739 28.114 6.70038 28.114C3.7123 28.114 1.28998 25.6917 1.28998 22.7036C1.28998 19.7155 3.7123 17.2932 6.70038 17.2932C7.74739 17.2932 8.72493 17.5906 9.55314 18.1056C9.68428 18.1871 9.822 18.2623 9.96509 18.3316Z" fill="white"/>
<path d="M11.4674 21.8528C10.9088 23.3826 11.0064 25.1397 11.8844 26.6604C12.7624 28.1812 14.2353 29.1442 15.8394 29.4254C15.7501 29.557 15.6685 29.691 15.5957 29.8272C15.1359 30.6872 14.438 31.4335 13.5313 31.957C10.9435 33.4511 7.63454 32.5644 6.1405 29.9767C4.64645 27.3889 5.53309 24.08 8.12084 22.5859C9.02758 22.0624 10.0229 21.8312 10.9976 21.8631C11.1519 21.8681 11.3088 21.8644 11.4674 21.8528Z" fill="white"/>
<path d="M14.5293 24.1511C14.8105 25.7552 15.7736 27.2281 17.2943 28.106C18.815 28.984 20.5722 29.0816 22.102 28.5231C22.0904 28.6817 22.0867 28.8385 22.0917 28.9929C22.1236 29.9676 21.8924 30.9629 21.3689 31.8696C19.8748 34.4574 16.5659 35.344 13.9781 33.8499C11.3903 32.3559 10.5037 29.047 11.9978 26.4592C12.5213 25.5525 13.2676 24.8546 14.1276 24.3948C14.2638 24.322 14.3978 24.2403 14.5293 24.1511Z" fill="white"/>
<path d="M18.3301 24.6107C19.3757 25.8593 20.9462 26.6533 22.7022 26.6533C24.4582 26.6533 26.0287 25.8593 27.0743 24.6107C27.1435 24.7538 27.2187 24.8915 27.3003 25.0226C27.8152 25.8508 28.1126 26.8284 28.1126 27.8754C28.1126 30.8635 25.6903 33.2858 22.7022 33.2858C19.7141 33.2858 17.2918 30.8635 17.2918 27.8754C17.2918 26.8284 17.5892 25.8508 18.1041 25.0226C18.1857 24.8915 18.2609 24.7538 18.3301 24.6107Z" fill="white"/>
<path d="M21.8514 23.1084C23.3812 23.6669 25.1383 23.5694 26.659 22.6915C28.1797 21.8135 29.1428 20.3406 29.424 18.7365C29.5555 18.8257 29.6895 18.9074 29.8257 18.9802C30.6858 19.44 31.4321 20.1378 31.9556 21.0445C33.4497 23.6323 32.563 26.9413 29.9753 28.4354C27.3875 29.9293 24.0786 29.0428 22.5845 26.455C22.061 25.5483 21.8298 24.5529 21.8616 23.5782C21.8667 23.4239 21.863 23.267 21.8514 23.1084Z" fill="white"/>
<path d="M28.108 17.2758C28.1069 17.2777 28.1058 17.2796 28.1047 17.2815C27.2268 18.8022 25.7539 19.7653 24.1498 20.0465C24.239 20.1781 24.3207 20.3121 24.3935 20.4482C24.8533 21.3083 25.5512 22.0546 26.4579 22.5781C29.0457 24.0722 32.3546 23.1855 33.8487 20.5978C35.1295 18.3792 34.6606 15.6306 32.8701 13.95C32.0835 15.8377 30.2582 17.1842 28.108 17.2758Z" fill="white"/>
</svg>
