<svg width="10" height="8" viewBox="0 0 10 8" fill="none" xmlns="http://www.w3.org/2000/svg">
<path d="M3.38114 7.03939C2.88114 7.03939 2.38114 6.83939 2.08114 6.43939L0.181139 4.23939C-0.118861 3.93939 -0.0188612 3.43939 0.281139 3.13939C0.581139 2.83939 1.08114 2.93939 1.38114 3.23939L3.28114 5.43939C3.38114 5.53939 3.38114 5.53939 3.48114 5.53939C3.58114 5.53939 3.58114 5.53939 3.68114 5.43939L8.28114 0.239387C8.58114 -0.0606126 9.08114 -0.0606121 9.38114 0.139388C9.68114 0.439388 9.68114 0.839387 9.48114 1.23939L4.68114 6.53939C4.28114 6.83939 3.88114 7.03939 3.38114 7.03939Z" fill="white"/>
</svg>
